<svg width="16" height="32" viewBox="0 0 16 32" fill="none" xmlns="http://www.w3.org/2000/svg">
<g filter="url(#filter0_i_569_1376)">
<path d="M0 7.97775C3.86258e-07 3.57176 3.58172 -3.85184e-07 8 0C12.4183 3.85184e-07 16 3.57176 16 7.97775C16 12.3837 12.4183 15.9555 8 15.9555C3.58172 15.9555 -3.86258e-07 12.3837 0 7.97775Z" fill="url(#paint0_linear_569_1376)"/>
</g>
<mask id="path-2-inside-1_569_1376" fill="white">
<path d="M3.01814 5.0224C2.78998 4.95733 2.66086 4.71383 2.75798 4.49735C3.15323 3.61643 3.83035 2.86265 4.70445 2.33938C5.59955 1.80355 6.65091 1.53954 7.71133 1.57905C7.92734 1.5871 8.08136 1.78363 8.05395 1.99804C8.02727 2.2067 7.83838 2.3539 7.6281 2.34829C6.75753 2.32507 5.89646 2.54603 5.16135 2.9861C4.43961 3.41815 3.87836 4.03802 3.54586 4.76259C3.45325 4.9644 3.23168 5.0833 3.01814 5.0224Z"/>
</mask>
<path d="M3.01814 5.0224C2.78998 4.95733 2.66086 4.71383 2.75798 4.49735C3.15323 3.61643 3.83035 2.86265 4.70445 2.33938C5.59955 1.80355 6.65091 1.53954 7.71133 1.57905C7.92734 1.5871 8.08136 1.78363 8.05395 1.99804C8.02727 2.2067 7.83838 2.3539 7.6281 2.34829C6.75753 2.32507 5.89646 2.54603 5.16135 2.9861C4.43961 3.41815 3.87836 4.03802 3.54586 4.76259C3.45325 4.9644 3.23168 5.0833 3.01814 5.0224Z" stroke="white" stroke-width="2.13313" mask="url(#path-2-inside-1_569_1376)"/>
<g filter="url(#filter1_i_569_1376)">
<path fill-rule="evenodd" clip-rule="evenodd" d="M10.0582 18.1323C9.38907 18.2952 8.68485 18.3822 7.95786 18.3822C7.27455 18.3822 6.61135 18.3054 5.97852 18.1609V30.067L8.01835 32.0002L10.0582 30.067V18.1323Z" fill="white"/>
</g>
<defs>
<filter id="filter0_i_569_1376" x="0" y="0" width="16" height="15.9556" filterUnits="userSpaceOnUse" color-interpolation-filters="sRGB">
<feFlood flood-opacity="0" result="BackgroundImageFix"/>
<feBlend mode="normal" in="SourceGraphic" in2="BackgroundImageFix" result="shape"/>
<feColorMatrix in="SourceAlpha" type="matrix" values="0 0 0 0 0 0 0 0 0 0 0 0 0 0 0 0 0 0 127 0" result="hardAlpha"/>
<feMorphology radius="1.06657" operator="dilate" in="SourceAlpha" result="effect1_innerShadow_569_1376"/>
<feOffset dx="-1.06657" dy="-3.1997"/>
<feComposite in2="hardAlpha" operator="arithmetic" k2="-1" k3="1"/>
<feColorMatrix type="matrix" values="0 0 0 0 0.176471 0 0 0 0 0.607843 0 0 0 0 0.439216 0 0 0 1 0"/>
<feBlend mode="normal" in2="shape" result="effect1_innerShadow_569_1376"/>
</filter>
<filter id="filter1_i_569_1376" x="5.04339" y="17.1972" width="5.01472" height="14.803" filterUnits="userSpaceOnUse" color-interpolation-filters="sRGB">
<feFlood flood-opacity="0" result="BackgroundImageFix"/>
<feBlend mode="normal" in="SourceGraphic" in2="BackgroundImageFix" result="shape"/>
<feColorMatrix in="SourceAlpha" type="matrix" values="0 0 0 0 0 0 0 0 0 0 0 0 0 0 0 0 0 0 127 0" result="hardAlpha"/>
<feOffset dx="-1.04734" dy="-1.04734"/>
<feGaussianBlur stdDeviation="0.467564"/>
<feComposite in2="hardAlpha" operator="arithmetic" k2="-1" k3="1"/>
<feColorMatrix type="matrix" values="0 0 0 0 0.760784 0 0 0 0 0.815686 0 0 0 0 0.803922 0 0 0 1 0"/>
<feBlend mode="normal" in2="shape" result="effect1_innerShadow_569_1376"/>
</filter>
<linearGradient id="paint0_linear_569_1376" x1="3.55473" y1="1.96936" x2="7.97755" y2="15.9626" gradientUnits="userSpaceOnUse">
<stop stop-color="#47D48E"/>
<stop offset="1" stop-color="#52D48F"/>
</linearGradient>
</defs>
</svg>
