<svg width="18" height="14" viewBox="0 0 18 14" fill="none" xmlns="http://www.w3.org/2000/svg">
<g clip-path="url(#clip0_138_4876)">
<path d="M2.92472 10.6858C3.03335 10.578 3.18271 10.5151 3.34112 10.5151H17.7067C17.9692 10.5151 18.1005 10.8295 17.9149 11.0137L15.0771 13.8299C14.9685 13.9377 14.8191 14.0005 14.6607 14.0005H0.295104C0.0325945 14.0005 -0.0986602 13.6861 0.0869068 13.502L2.92472 10.6858Z" fill="url(#paint0_linear_138_4876)"/>
<path d="M2.92472 0.170677C3.03787 0.062881 3.18723 0 3.34112 0H17.7067C17.9692 0 18.1005 0.314405 17.9149 0.498556L15.0771 3.31473C14.9685 3.42252 14.8191 3.4854 14.6607 3.4854H0.295104C0.0325945 3.4854 -0.0986602 3.171 0.0869068 2.98685L2.92472 0.170677Z" fill="url(#paint1_linear_138_4876)"/>
<path d="M15.0771 5.3948C14.9685 5.287 14.8191 5.22412 14.6607 5.22412H0.295104C0.0325945 5.22412 -0.0986602 5.53853 0.0869068 5.72268L2.92472 8.53885C3.03335 8.64664 3.18271 8.70952 3.34112 8.70952H17.7067C17.9692 8.70952 18.1005 8.39512 17.9149 8.21097L15.0771 5.3948Z" fill="url(#paint2_linear_138_4876)"/>
</g>
<defs>
<linearGradient id="paint0_linear_138_4876" x1="16.3344" y1="-1.68176" x2="6.51138" y2="17.2779" gradientUnits="userSpaceOnUse">
<stop stop-color="#00FFA3"/>
<stop offset="1" stop-color="#DC1FFF"/>
</linearGradient>
<linearGradient id="paint1_linear_138_4876" x1="11.9871" y1="-3.93462" x2="2.16413" y2="15.025" gradientUnits="userSpaceOnUse">
<stop stop-color="#00FFA3"/>
<stop offset="1" stop-color="#DC1FFF"/>
</linearGradient>
<linearGradient id="paint2_linear_138_4876" x1="14.1469" y1="-2.81512" x2="4.32392" y2="16.1445" gradientUnits="userSpaceOnUse">
<stop stop-color="#00FFA3"/>
<stop offset="1" stop-color="#DC1FFF"/>
</linearGradient>
<clipPath id="clip0_138_4876">
<rect width="18" height="14" fill="white"/>
</clipPath>
</defs>
</svg>
